<svg id="Calque_1" data-name="Calque 1" xmlns="http://www.w3.org/2000/svg" viewBox="0 0 24 20"><defs><style>.cls-1{fill:#7fc89e;}</style></defs><title>iconmonstr-basket-4</title><path class="cls-1" d="M4.56,7l4.7-4.7A1,1,0,0,1,11,3a1,1,0,0,1-.3.71L7.44,7H4.56Zm12,0h2.88l-4.7-4.7A1,1,0,0,0,13,3a1,1,0,0,0,.3.71Zm3.7,4,0,0-3.6,9H7.35l-3.6-9,0,0H20.26ZM24,9H0v2H0.64a1.4,1.4,0,0,1,1.26.78L6,22H18l4.1-10.21A1.4,1.4,0,0,1,23.36,11H24V9ZM10,14a1,1,0,0,0-2,0v3a1,1,0,0,0,2,0V14Zm3,0a1,1,0,0,0-2,0v3a1,1,0,0,0,2,0V14Zm3,0a1,1,0,0,0-2,0v3a1,1,0,0,0,2,0V14Z" transform="translate(0 -2)"/></svg>