<?xml version="1.0" encoding="utf-8"?>
<!-- Generator: Adobe Illustrator 19.2.0, SVG Export Plug-In . SVG Version: 6.00 Build 0)  -->
<svg version="1.1" id="Calque_1" xmlns="http://www.w3.org/2000/svg" xmlns:xlink="http://www.w3.org/1999/xlink" x="0px" y="0px"
	 viewBox="0 0 100 125" style="enable-background:new 0 0 100 125;" xml:space="preserve">
<style type="text/css">
	.st0{fill:#7FC79D;}
</style>
<g>
	<path class="st0" d="M82.4,35H66.2H50H33.8H17.6c-0.9,0-1.6,0.7-1.6,1.6v16.2V69v16.2c0,0.9,0.7,1.6,1.6,1.6h16.2H50h16.2h16.2
		c0.9,0,1.6-0.7,1.6-1.6V69V52.8V36.6C84,35.7,83.3,35,82.4,35z M32.2,83.6H19.1V70.6h13.1C32.2,70.6,32.2,83.6,32.2,83.6z
		 M32.2,67.4H19.1V54.4h13.1C32.2,54.4,32.2,67.4,32.2,67.4z M32.2,51.2H19.1V38.2h13.1C32.2,38.2,32.2,51.2,32.2,51.2z M48.4,83.6
		H35.4V70.6h13.1V83.6z M48.4,67.4H35.4V54.4h13.1V67.4z M48.4,51.2H35.4V38.2h13.1V51.2z M64.6,83.6H51.6V70.6h13.1V83.6z
		 M64.6,67.4H51.6V54.4h13.1V67.4z M64.6,51.2H51.6V38.2h13.1V51.2z M80.9,83.6H67.8V70.6h13.1V83.6z M80.9,67.4H67.8V54.4h13.1
		V67.4z M80.9,51.2H67.8V38.2h13.1V51.2z"/>
	<path class="st0" d="M23.1,21.8c2.2,0,4-1.9,4-4.2V9.2c0-2.3-1.8-4.2-4-4.2s-4,1.9-4,4.2v8.4C19.1,19.9,20.9,21.8,23.1,21.8z"/>
	<path class="st0" d="M73,9.2v8.4c0,2.3,1.8,4.2,4,4.2s4-1.9,4-4.2V9.2c0-2.3-1.8-4.2-4-4.2S73,6.9,73,9.2z"/>
	<path class="st0" d="M7.1,95h85.8c0.9,0,1.6-0.7,1.6-1.6V15.8c0-0.9-0.7-1.6-1.6-1.6h-9.6v3.4c0,3.7-2.9,6.7-6.4,6.7
		c-3.5,0-6.4-3-6.4-6.7v-3.4h-41v3.4c0,3.7-2.9,6.7-6.4,6.7c-3.5,0-6.4-3-6.4-6.7v-3.4H7.1c-0.9,0-1.6,0.7-1.6,1.6v77.5
		C5.5,94.3,6.2,95,7.1,95z M9.8,31.1h80.4v59.5H9.8V31.1z"/>
</g>
</svg>
