<?xml version="1.0" encoding="utf-8"?>
<!-- Generator: Adobe Illustrator 19.1.0, SVG Export Plug-In . SVG Version: 6.00 Build 0)  -->
<svg version="1.1" id="Calque_1" xmlns="http://www.w3.org/2000/svg" xmlns:xlink="http://www.w3.org/1999/xlink" x="0px" y="0px"
	 viewBox="0 0 36.8 103.8" style="enable-background:new 0 0 36.8 103.8;" xml:space="preserve">
<style type="text/css">
	.st0{display:none;}
	.st1{fill:#E8675A;}
	.st2{fill:none;stroke:#E8675A;stroke-width:2;stroke-miterlimit:10;}
	.st3{fill:none;stroke:#E8675A;stroke-width:2;stroke-linejoin:round;stroke-miterlimit:10;}
</style>
<g id="ZNniKX.tif" class="st0">
	
		<image style="display:inline;overflow:visible;" width="1300" height="1300" id="Layer_0" xlink:href="23E36D74673AEA5E.png"  transform="matrix(0.1336 0 0 0.1336 -68.838 -18.8335)">
	</image>
</g>
<g>
	<path class="st1" d="M21,66.2c-2.5,1.9-2.9,1.9-5,0.3c-0.6-0.4-1.2-1.6-2.2-0.6c-0.7,0.6-0.4,1.4,0.7,2.2c0.8,0.5,2.9,1.6,3.9,1.5
		c1.9,0,2.4-0.7,3.8-2c0.6-0.6,1.5-1.3,0.8-2.1C22.2,64.6,21.6,65.7,21,66.2z"/>
	<path class="st1" d="M6.9,55.2c-0.9,1.2-0.6,3.4,0.5,4.3c1.3,1,3.1,0.8,4.1-0.5c1.1-1.4,1.1-3.7-0.1-4.5C10.2,53.6,7.8,54,6.9,55.2
		z M9,56.9c-0.4,0.5-1,0.6-1.5,0.2c-0.4-0.3-0.5-1.1-0.2-1.5C7.7,55.1,8.6,55,9,55.3C9.4,55.6,9.4,56.4,9,56.9z"/>
	<path class="st1" d="M24.8,54.5c-1.3,1.8-0.8,3.4,0.8,4.6c1.4,1.1,3.3,0.9,4.2-0.5c1-1.5,0.7-4.1-0.5-5
		C27.9,52.7,26.1,52.8,24.8,54.5z M27.4,56.6c-0.4,0.5-1.1,0.6-1.7,0.2c-0.6-0.5-0.7-1-0.1-1.8c0.5-0.7,1.1-0.8,1.6-0.4
		C27.7,55,27.8,56,27.4,56.6z"/>
	<path class="st2" d="M17.1,37.2c0,0,25.3-3.2,14.7,35.6s-17.2,38.7-27.5-0.5C-5.7,34.8,17.1,37.2,17.1,37.2z"/>
	<path class="st3" d="M8.8,33.5c0,0,3.9-2.2,8.7-2.2s7.5,0.9,10.1,2.4l6-12.5c0,0,1.8-3.7-1.5-4.8S27.8,19,27.8,19l-2.3,4.7l2.3-9.3
		c0,0,1.5-4-1.2-4.8c-2.8-0.9-4.1,2-4.1,2L19,19.2L18,6c0,0-0.5-3.3-2.8-3.2c-2.9,0.2-2.8,3-2.8,3l1.4,12.7l-3.5-6
		c0,0-1.6-2.8-3.9-1.8c-2.3,0.9-1.3,3.7-1.3,3.7l3.4,9.5l-2.2-2.5c0,0-1.8-2.4-3.5-1.5c-2.7,1.5,0.3,5.5,0.3,5.5L8.8,33.5z"/>
</g>
</svg>
