<?xml version="1.0" encoding="utf-8"?>
<!-- Generator: Adobe Illustrator 19.2.0, SVG Export Plug-In . SVG Version: 6.00 Build 0)  -->
<svg version="1.1" id="Calque_1" xmlns="http://www.w3.org/2000/svg" xmlns:xlink="http://www.w3.org/1999/xlink" x="0px" y="0px"
	 viewBox="0 0 100 125" style="enable-background:new 0 0 100 125;" xml:space="preserve">
<style type="text/css">
	.st0{fill:#7FC79D;}
</style>
<g>
	<path class="st0" d="M31.2,48.3c6.3-1.7,19.5-11.7,16.8-30.4c0-0.2-0.1-0.2-0.3-0.1c-5.8,5.6-22.6,8.4-20.3,25.5
		c-0.3-0.5-0.5-0.7-0.9-0.7c-0.3,0-0.7,0.3-0.9,0.8c3.3-18.1-14.1-21-19.9-26.8c-0.1-0.1-0.2-0.1-0.3,0.1
		C2.5,35.5,15.7,45.6,22,47.3c0.2,0,0.2,0,0.1-0.2c-5-6.3-12.3-20.2-11.1-18.6c1.2,1.7,10.6,10.1,14.2,16.2c0,0,0,0,0,0
		c-0.2,0.7-0.3,1.6-0.3,2.6l-0.2,42.6c0,0.2,0.1,0.3,0.3,0.3l2.7,0c0.2,0,0.3-0.1,0.3-0.3l0.2-42.6c0-0.6,0-1.2-0.1-1.7
		c3.7-6.1,13-14.2,14.2-16c1.2-1.6-6.2,12.2-11.3,18.5C31,48.3,31,48.3,31.2,48.3z"/>
	<path class="st0" d="M28.3,8.9c-1.9,4.6-10.7,10.6-2.9,19.7c0,0,0,0.1,0.1,0.1c0.1,0.1,0.2,0,0.2-0.2c0.9-4.5,1.8-8.5,1.9-9.6
		c0.1-1.2,0.6,3.9,0.8,10.1c0,0.2,0,0.3,0,0.3c0,0,0.1-0.1,0.3-0.2c2.2-1.5,8.4-8.7-0.2-20.3C28.5,8.7,28.4,8.8,28.3,8.9z"/>
	<path class="st0" d="M77.9,48.7C84.1,47,97.4,37,94.6,18.2c0-0.2-0.1-0.2-0.3-0.1c-5.8,5.6-22.6,8.4-20.3,25.5
		c-0.3-0.4-0.5-0.7-0.9-0.7c-0.3,0-0.7,0.3-0.9,0.8c3.3-18.1-14.1-21-19.9-26.8c-0.1-0.1-0.2-0.1-0.3,0.1
		c-2.9,18.8,10.3,28.9,16.6,30.6c0.2,0,0.2,0,0.1-0.2c-5-6.3-12.3-20.2-11.1-18.6c1.2,1.7,10.6,10.1,14.2,16.2c0,0,0,0,0,0
		c-0.2,0.7-0.3,1.6-0.3,2.6l-0.2,42.6c0,0.2,0.1,0.3,0.3,0.3l2.7,0c0.2,0,0.3-0.1,0.3-0.3l0.2-42.6c0-0.6,0-1.2-0.1-1.7
		c3.7-6.1,13-14.3,14.2-16c1.2-1.6-6.2,12.2-11.3,18.5C77.7,48.6,77.7,48.7,77.9,48.7z"/>
	<path class="st0" d="M75,9.3c-1.9,4.6-10.7,10.6-2.9,19.7c0,0,0,0.1,0.1,0.1c0.1,0.1,0.2,0,0.2-0.2c0.9-4.5,1.8-8.5,1.9-9.6
		c0.1-1.2,0.6,3.9,0.8,10.1c0,0.2,0,0.3,0,0.3c0,0,0.1-0.1,0.3-0.2c2.2-1.5,8.4-8.7-0.2-20.3C75.2,9.1,75.1,9.1,75,9.3z"/>
	<path class="st0" d="M54.3,67.8c3.5-1,10.7-6.5,9.2-16.8c0-0.2-0.1-0.2-0.3-0.1C59.9,54,50.7,55.6,52,65.1
		c-0.1-0.2-0.3-0.4-0.5-0.4c-0.2,0-0.4,0.2-0.5,0.5c1.8-10-7.7-11.7-11-14.8c-0.1-0.1-0.2-0.1-0.3,0.1c-1.5,10.2,5.6,15.8,9.1,16.9
		c0.2,0,0.2,0,0.1-0.2c-2.8-3.6-6.8-11.1-6.1-10.2c0.7,1,5.8,5.5,7.8,8.9c0,0,0.1,0.1,0.1,0.1c-0.1,0.4-0.2,0.9-0.2,1.5l-0.1,23.6
		c0,0.2,0.1,0.3,0.3,0.3l1.3,0c0.2,0,0.3-0.1,0.3-0.3l0.1-23.6c0-0.3,0-0.7-0.1-1c0,0,0,0,0-0.1c2.1-3.4,7.2-7.9,7.9-8.8
		c0.6-0.9-3.4,6.6-6.2,10.2C54,67.8,54.1,67.8,54.3,67.8z"/>
	<path class="st0" d="M51,57c0,0,0.1-0.1,0.1-0.2c0.5-2.5,1-4.6,1-5.2c0-0.7,0.3,2.1,0.5,5.5c0,0.2,0.1,0.2,0.3,0.1
		c1.3-1,4.4-4.9-0.1-11.2c-0.1-0.1-0.2-0.1-0.3,0C51.3,48.6,46.7,51.9,51,57C50.9,56.9,51,56.9,51,57z"/>
</g>
</svg>
